<?xml version="1.0" encoding="UTF-8" standalone="no"?>
<!DOCTYPE svg PUBLIC "-//W3C//DTD SVG 1.1//EN"
 "http://www.w3.org/Graphics/SVG/1.1/DTD/svg11.dtd">
<!-- Generated by graphviz version 2.38.0 (20140413.2041)
 -->
<!-- Title: %3 Pages: 1 -->
<svg width="1295pt" height="1069pt"
 viewBox="0.00 0.00 1295.00 1069.00" xmlns="http://www.w3.org/2000/svg" xmlns:xlink="http://www.w3.org/1999/xlink">
<g id="graph0" class="graph" transform="scale(1 1) rotate(0) translate(4 1065)">
<title>%3</title>
<polygon fill="white" stroke="none" points="-4,4 -4,-1065 1291,-1065 1291,4 -4,4"/>
<text text-anchor="middle" x="643.5" y="-22.8" font-family="Times,serif" font-size="14.00">Unfolding 0x425ddf8</text>
<text text-anchor="middle" x="643.5" y="-7.8" font-family="Times,serif" font-size="14.00">33 events, 4 threads</text>
<g id="clust1" class="cluster"><title>cluster_p0</title>
<polygon fill="#f0f0f0" stroke="#f0f0f0" points="285,-78 285,-1017 622,-1017 622,-78 285,-78"/>
<text text-anchor="middle" x="453.5" y="-1001.8" font-family="Times,serif" font-size="14.00">Thread 0</text>
</g>
<g id="clust18" class="cluster"><title>cluster_p1</title>
<polygon fill="#f0f0f0" stroke="#f0f0f0" points="630,-366 630,-1017 1003,-1017 1003,-366 630,-366"/>
<text text-anchor="middle" x="816.5" y="-1001.8" font-family="Times,serif" font-size="14.00">Thread 1</text>
</g>
<g id="clust28" class="cluster"><title>cluster_p2</title>
<polygon fill="#f0f0f0" stroke="#f0f0f0" points="8,-294 8,-1017 277,-1017 277,-294 8,-294"/>
<text text-anchor="middle" x="142.5" y="-1001.8" font-family="Times,serif" font-size="14.00">Thread 2</text>
</g>
<g id="clust33" class="cluster"><title>cluster_p3</title>
<polygon fill="#f0f0f0" stroke="#f0f0f0" points="1011,-366 1011,-1017 1279,-1017 1279,-366 1011,-366"/>
<text text-anchor="middle" x="1145" y="-1001.8" font-family="Times,serif" font-size="14.00">Thread 3</text>
</g>
<!-- p0_d0 -->
<!-- p0_d1 -->
<!-- p0_d0&#45;&gt;p0_d1 -->
<!-- _0x10000020 -->
<g id="node2" class="node"><title>_0x10000020</title>
<polygon fill="greenyellow" stroke="black" points="593.5,-986 484.5,-986 484.5,-950 593.5,-950 593.5,-986"/>
<text text-anchor="middle" x="539" y="-971" font-family="Times,serif" font-size="10.00">THSTART </text>
<text text-anchor="middle" x="539" y="-960" font-family="Times,serif" font-size="10.00">e 00000020 d 0,0,0</text>
</g>
<!-- _0x100000f0 -->
<g id="node4" class="node"><title>_0x100000f0</title>
<polygon fill="#eeee00" stroke="black" points="592.5,-914 485.5,-914 485.5,-878 592.5,-878 592.5,-914"/>
<text text-anchor="middle" x="539" y="-899" font-family="Times,serif" font-size="10.00">THCREAT 1</text>
<text text-anchor="middle" x="539" y="-888" font-family="Times,serif" font-size="10.00">e 000000f0 d 1,1,0</text>
</g>
<!-- _0x10000020&#45;&gt;_0x100000f0 -->
<g id="edge42" class="edge"><title>_0x10000020&#45;&gt;_0x100000f0</title>
<path fill="none" stroke="black" d="M539,-949.697C539,-941.983 539,-932.712 539,-924.112"/>
<polygon fill="black" stroke="black" points="542.5,-924.104 539,-914.104 535.5,-924.104 542.5,-924.104"/>
</g>
<!-- p0_d2 -->
<!-- p0_d1&#45;&gt;p0_d2 -->
<!-- _0x100001c0 -->
<g id="node6" class="node"><title>_0x100001c0</title>
<polygon fill="salmon" stroke="black" points="605,-842 473,-842 473,-806 605,-806 605,-842"/>
<text text-anchor="middle" x="539" y="-827" font-family="Times,serif" font-size="10.00">MTX&#45;LOCK 0x1a67f010</text>
<text text-anchor="middle" x="539" y="-816" font-family="Times,serif" font-size="10.00">e 000001c0 d 2,2,0</text>
</g>
<!-- _0x100000f0&#45;&gt;_0x100001c0 -->
<g id="edge43" class="edge"><title>_0x100000f0&#45;&gt;_0x100001c0</title>
<path fill="none" stroke="black" d="M539,-877.697C539,-869.983 539,-860.712 539,-852.112"/>
<polygon fill="black" stroke="black" points="542.5,-852.104 539,-842.104 535.5,-852.104 542.5,-852.104"/>
</g>
<!-- _0x10000778 -->
<g id="node20" class="node"><title>_0x10000778</title>
<polygon fill="salmon" stroke="black" points="520,-554 388,-554 388,-518 520,-518 520,-554"/>
<text text-anchor="middle" x="454" y="-539" font-family="Times,serif" font-size="10.00">MTX&#45;LOCK 0x1a67f010</text>
<text text-anchor="middle" x="454" y="-528" font-family="Times,serif" font-size="10.00">e 00000778 d 6,2,2</text>
</g>
<!-- _0x100000f0&#45;&gt;_0x10000778 -->
<g id="edge54" class="edge"><title>_0x100000f0&#45;&gt;_0x10000778</title>
<path fill="none" stroke="black" d="M502.739,-877.916C488.3,-869.224 473.004,-857.236 464,-842 443.749,-807.732 454,-792.804 454,-753 454,-753 454,-753 454,-679 454,-638.996 454,-592.653 454,-564.08"/>
<polygon fill="black" stroke="black" points="457.5,-564.049 454,-554.049 450.5,-564.049 457.5,-564.049"/>
</g>
<!-- _0x10400020 -->
<g id="node31" class="node"><title>_0x10400020</title>
<polygon fill="greenyellow" stroke="black" points="825.5,-842 716.5,-842 716.5,-806 825.5,-806 825.5,-842"/>
<text text-anchor="middle" x="771" y="-827" font-family="Times,serif" font-size="10.00">THSTART </text>
<text text-anchor="middle" x="771" y="-816" font-family="Times,serif" font-size="10.00">e 00400020 d 2,0,1</text>
</g>
<!-- _0x100000f0&#45;&gt;_0x10400020 -->
<g id="edge66" class="edge"><title>_0x100000f0&#45;&gt;_0x10400020</title>
<path fill="none" stroke="blue" d="M592.517,-878.853C626.399,-868.63 670.419,-855.348 706.263,-844.533"/>
<polygon fill="blue" stroke="blue" points="707.579,-847.792 716.142,-841.552 705.557,-841.09 707.579,-847.792"/>
</g>
<!-- p0_d3 -->
<!-- p0_d2&#45;&gt;p0_d3 -->
<!-- _0x10000290 -->
<g id="node8" class="node"><title>_0x10000290</title>
<polygon fill="#eeee00" stroke="black" points="593.5,-770 484.5,-770 484.5,-734 593.5,-734 593.5,-770"/>
<text text-anchor="middle" x="539" y="-755" font-family="Times,serif" font-size="10.00">THCREAT 2</text>
<text text-anchor="middle" x="539" y="-744" font-family="Times,serif" font-size="10.00">e 00000290 d 3,3,0</text>
</g>
<!-- _0x100001c0&#45;&gt;_0x10000290 -->
<g id="edge44" class="edge"><title>_0x100001c0&#45;&gt;_0x10000290</title>
<path fill="none" stroke="black" d="M539,-805.697C539,-797.983 539,-788.712 539,-780.112"/>
<polygon fill="black" stroke="black" points="542.5,-780.104 539,-770.104 535.5,-780.104 542.5,-780.104"/>
</g>
<!-- _0x10000360 -->
<g id="node10" class="node"><title>_0x10000360</title>
<polygon fill="lightblue" stroke="black" points="614,-698 480,-698 480,-662 614,-662 614,-698"/>
<text text-anchor="middle" x="547" y="-683" font-family="Times,serif" font-size="10.00">MTX&#45;UNLK 0x1a67f010</text>
<text text-anchor="middle" x="547" y="-672" font-family="Times,serif" font-size="10.00">e 00000360 d 4,4,1</text>
</g>
<!-- _0x100001c0&#45;&gt;_0x10000360 -->
<g id="edge46" class="edge"><title>_0x100001c0&#45;&gt;_0x10000360</title>
<path fill="none" stroke="blue" d="M569.3,-805.805C581.878,-796.898 595.123,-784.772 602,-770 608.753,-755.495 608.26,-748.725 602,-734 597.265,-722.862 588.916,-712.93 580.132,-704.759"/>
<polygon fill="blue" stroke="blue" points="582.23,-701.946 572.38,-698.045 577.648,-707.238 582.23,-701.946"/>
</g>
<!-- _0x10400438 -->
<g id="node41" class="node"><title>_0x10400438</title>
<polygon fill="salmon" stroke="black" points="837,-770 705,-770 705,-734 837,-734 837,-770"/>
<text text-anchor="middle" x="771" y="-755" font-family="Times,serif" font-size="10.00">MTX&#45;LOCK 0x1a67f010</text>
<text text-anchor="middle" x="771" y="-744" font-family="Times,serif" font-size="10.00">e 00400438 d 3,1,0</text>
</g>
<!-- _0x100001c0&#45;&gt;_0x10400438 -->
<g id="edge86" class="edge"><title>_0x100001c0&#45;&gt;_0x10400438</title>
<path fill="none" stroke="red" stroke-dasharray="5,2" d="M595.457,-805.966C631.537,-795.079 678.161,-781.012 714.29,-770.111"/>
</g>
<!-- p0_d4 -->
<!-- p0_d3&#45;&gt;p0_d4 -->
<!-- _0x10000290&#45;&gt;_0x10000360 -->
<g id="edge45" class="edge"><title>_0x10000290&#45;&gt;_0x10000360</title>
<path fill="none" stroke="black" d="M540.978,-733.697C541.859,-725.983 542.919,-716.712 543.901,-708.112"/>
<polygon fill="black" stroke="black" points="547.387,-708.437 545.045,-698.104 540.432,-707.642 547.387,-708.437"/>
</g>
<!-- _0x10800020 -->
<g id="node49" class="node"><title>_0x10800020</title>
<polygon fill="greenyellow" stroke="black" points="197.5,-698 88.5,-698 88.5,-662 197.5,-662 197.5,-698"/>
<text text-anchor="middle" x="143" y="-683" font-family="Times,serif" font-size="10.00">THSTART </text>
<text text-anchor="middle" x="143" y="-672" font-family="Times,serif" font-size="10.00">e 00800020 d 4,0,1</text>
</g>
<!-- _0x10000290&#45;&gt;_0x10800020 -->
<g id="edge78" class="edge"><title>_0x10000290&#45;&gt;_0x10800020</title>
<path fill="none" stroke="blue" d="M484.354,-741.34C412.065,-728.562 284.83,-706.071 207.785,-692.452"/>
<polygon fill="blue" stroke="blue" points="208.178,-688.967 197.721,-690.673 206.959,-695.86 208.178,-688.967"/>
</g>
<!-- p0_d5 -->
<!-- p0_d4&#45;&gt;p0_d5 -->
<!-- _0x10000430 -->
<g id="node12" class="node"><title>_0x10000430</title>
<polygon fill="orchid" stroke="black" points="613.5,-338 504.5,-338 504.5,-302 613.5,-302 613.5,-338"/>
<text text-anchor="middle" x="559" y="-323" font-family="Times,serif" font-size="10.00">THJOIN 1</text>
<text text-anchor="middle" x="559" y="-312" font-family="Times,serif" font-size="10.00">e 00000430 d 9,5,1</text>
</g>
<!-- _0x10000360&#45;&gt;_0x10000430 -->
<g id="edge47" class="edge"><title>_0x10000360&#45;&gt;_0x10000430</title>
<path fill="none" stroke="black" d="M548.185,-661.961C549.934,-635.315 553,-582.155 553,-537 553,-537 553,-537 553,-463 553,-422.96 555.411,-376.627 557.176,-348.065"/>
<polygon fill="black" stroke="black" points="560.672,-348.242 557.815,-338.039 553.686,-347.797 560.672,-348.242"/>
</g>
<!-- _0x104000f0 -->
<g id="node33" class="node"><title>_0x104000f0</title>
<polygon fill="salmon" stroke="black" points="922,-626 790,-626 790,-590 922,-590 922,-626"/>
<text text-anchor="middle" x="856" y="-611" font-family="Times,serif" font-size="10.00">MTX&#45;LOCK 0x1a67f010</text>
<text text-anchor="middle" x="856" y="-600" font-family="Times,serif" font-size="10.00">e 004000f0 d 5,1,2</text>
</g>
<!-- _0x10000360&#45;&gt;_0x104000f0 -->
<g id="edge68" class="edge"><title>_0x10000360&#45;&gt;_0x104000f0</title>
<path fill="none" stroke="blue" d="M614.077,-663.81C658.484,-653.754 718.292,-640.208 779.854,-626.26"/>
<polygon fill="blue" stroke="blue" points="780.767,-629.641 789.747,-624.018 779.221,-622.814 780.767,-629.641"/>
</g>
<!-- p0_d9 -->
<!-- p0_d10 -->
<!-- p0_d9&#45;&gt;p0_d10 -->
<!-- _0x10000500 -->
<g id="node14" class="node"><title>_0x10000500</title>
<polygon fill="orchid" stroke="black" points="480.5,-266 365.5,-266 365.5,-230 480.5,-230 480.5,-266"/>
<text text-anchor="middle" x="423" y="-251" font-family="Times,serif" font-size="10.00">THJOIN 2</text>
<text text-anchor="middle" x="423" y="-240" font-family="Times,serif" font-size="10.00">e 00000500 d 10,6,1</text>
</g>
<!-- _0x10000430&#45;&gt;_0x10000500 -->
<g id="edge49" class="edge"><title>_0x10000430&#45;&gt;_0x10000500</title>
<path fill="none" stroke="black" d="M525.731,-301.876C507.537,-292.512 484.809,-280.814 465.36,-270.803"/>
<polygon fill="black" stroke="black" points="466.89,-267.654 456.397,-266.19 463.687,-273.878 466.89,-267.654"/>
</g>
<!-- p0_d11 -->
<!-- p0_d10&#45;&gt;p0_d11 -->
<!-- _0x100005d0 -->
<g id="node16" class="node"><title>_0x100005d0</title>
<polygon fill="orchid" stroke="black" points="480.5,-194 365.5,-194 365.5,-158 480.5,-158 480.5,-194"/>
<text text-anchor="middle" x="423" y="-179" font-family="Times,serif" font-size="10.00">THJOIN 3</text>
<text text-anchor="middle" x="423" y="-168" font-family="Times,serif" font-size="10.00">e 000005d0 d 11,7,1</text>
</g>
<!-- _0x10000500&#45;&gt;_0x100005d0 -->
<g id="edge51" class="edge"><title>_0x10000500&#45;&gt;_0x100005d0</title>
<path fill="none" stroke="black" d="M423,-229.697C423,-221.983 423,-212.712 423,-204.112"/>
<polygon fill="black" stroke="black" points="426.5,-204.104 423,-194.104 419.5,-204.104 426.5,-204.104"/>
</g>
<!-- p0_d12 -->
<!-- p0_d11&#45;&gt;p0_d12 -->
<!-- _0x100006a0 -->
<g id="node18" class="node"><title>_0x100006a0</title>
<polygon fill="grey" stroke="black" points="480.5,-122 365.5,-122 365.5,-86 480.5,-86 480.5,-122"/>
<text text-anchor="middle" x="423" y="-107" font-family="Times,serif" font-size="10.00">THEXIT </text>
<text text-anchor="middle" x="423" y="-96" font-family="Times,serif" font-size="10.00">e 000006a0 d 12,8,0</text>
</g>
<!-- _0x100005d0&#45;&gt;_0x100006a0 -->
<g id="edge53" class="edge"><title>_0x100005d0&#45;&gt;_0x100006a0</title>
<path fill="none" stroke="black" d="M423,-157.697C423,-149.983 423,-140.712 423,-132.112"/>
<polygon fill="black" stroke="black" points="426.5,-132.104 423,-122.104 419.5,-132.104 426.5,-132.104"/>
</g>
<!-- p0_d6 -->
<!-- p0_d7 -->
<!-- p0_d6&#45;&gt;p0_d7 -->
<!-- _0x10000848 -->
<g id="node22" class="node"><title>_0x10000848</title>
<polygon fill="#eeee00" stroke="black" points="486.5,-482 377.5,-482 377.5,-446 486.5,-446 486.5,-482"/>
<text text-anchor="middle" x="432" y="-467" font-family="Times,serif" font-size="10.00">THCREAT 2</text>
<text text-anchor="middle" x="432" y="-456" font-family="Times,serif" font-size="10.00">e 00000848 d 7,3,0</text>
</g>
<!-- _0x10000778&#45;&gt;_0x10000848 -->
<g id="edge56" class="edge"><title>_0x10000778&#45;&gt;_0x10000848</title>
<path fill="none" stroke="black" d="M448.562,-517.697C446.111,-509.898 443.16,-500.509 440.432,-491.829"/>
<polygon fill="black" stroke="black" points="443.713,-490.595 437.376,-482.104 437.035,-492.694 443.713,-490.595"/>
</g>
<!-- _0x10000918 -->
<g id="node24" class="node"><title>_0x10000918</title>
<polygon fill="lightblue" stroke="black" points="499,-410 365,-410 365,-374 499,-374 499,-410"/>
<text text-anchor="middle" x="432" y="-395" font-family="Times,serif" font-size="10.00">MTX&#45;UNLK 0x1a67f010</text>
<text text-anchor="middle" x="432" y="-384" font-family="Times,serif" font-size="10.00">e 00000918 d 8,4,3</text>
</g>
<!-- _0x10000778&#45;&gt;_0x10000918 -->
<g id="edge58" class="edge"><title>_0x10000778&#45;&gt;_0x10000918</title>
<path fill="none" stroke="blue" d="M472.169,-517.677C480.885,-508.097 490.412,-495.43 495,-482 500.173,-466.859 501.753,-460.505 495,-446 489.574,-434.344 480.182,-424.336 470.282,-416.256"/>
<polygon fill="blue" stroke="blue" points="472.381,-413.455 462.3,-410.195 468.148,-419.03 472.381,-413.455"/>
</g>
<!-- p0_d8 -->
<!-- p0_d7&#45;&gt;p0_d8 -->
<!-- _0x10000848&#45;&gt;_0x10000918 -->
<g id="edge57" class="edge"><title>_0x10000848&#45;&gt;_0x10000918</title>
<path fill="none" stroke="black" d="M432,-445.697C432,-437.983 432,-428.712 432,-420.112"/>
<polygon fill="black" stroke="black" points="435.5,-420.104 432,-410.104 428.5,-420.104 435.5,-420.104"/>
</g>
<!-- _0x108001c8 -->
<g id="node53" class="node"><title>_0x108001c8</title>
<polygon fill="greenyellow" stroke="black" points="268,-410 160,-410 160,-374 268,-374 268,-410"/>
<text text-anchor="middle" x="214" y="-395" font-family="Times,serif" font-size="10.00">THSTART </text>
<text text-anchor="middle" x="214" y="-384" font-family="Times,serif" font-size="10.00">e 008001c8 d 8,0,1</text>
</g>
<!-- _0x10000848&#45;&gt;_0x108001c8 -->
<g id="edge80" class="edge"><title>_0x10000848&#45;&gt;_0x108001c8</title>
<path fill="none" stroke="blue" d="M378.95,-445.966C348.226,-436.1 309.364,-423.622 277.08,-413.255"/>
<polygon fill="blue" stroke="blue" points="277.879,-409.836 267.288,-410.111 275.739,-416.501 277.879,-409.836"/>
</g>
<!-- p0_d8&#45;&gt;p0_d9 -->
<!-- _0x100009e8 -->
<g id="node25" class="node"><title>_0x100009e8</title>
<polygon fill="orchid" stroke="black" points="486,-338 378,-338 378,-302 486,-302 486,-338"/>
<text text-anchor="middle" x="432" y="-323" font-family="Times,serif" font-size="10.00">THJOIN 1</text>
<text text-anchor="middle" x="432" y="-312" font-family="Times,serif" font-size="10.00">e 000009e8 d 9,5,1</text>
</g>
<!-- _0x10000918&#45;&gt;_0x100009e8 -->
<g id="edge59" class="edge"><title>_0x10000918&#45;&gt;_0x100009e8</title>
<path fill="none" stroke="black" d="M432,-373.697C432,-365.983 432,-356.712 432,-348.112"/>
<polygon fill="black" stroke="black" points="435.5,-348.104 432,-338.104 428.5,-348.104 435.5,-348.104"/>
</g>
<!-- _0x10000ab8 -->
<g id="node26" class="node"><title>_0x10000ab8</title>
<polygon fill="orchid" stroke="black" points="613.5,-266 498.5,-266 498.5,-230 613.5,-230 613.5,-266"/>
<text text-anchor="middle" x="556" y="-251" font-family="Times,serif" font-size="10.00">THJOIN 2</text>
<text text-anchor="middle" x="556" y="-240" font-family="Times,serif" font-size="10.00">e 00000ab8 d 10,6,1</text>
</g>
<!-- _0x100009e8&#45;&gt;_0x10000ab8 -->
<g id="edge61" class="edge"><title>_0x100009e8&#45;&gt;_0x10000ab8</title>
<path fill="none" stroke="black" d="M462.334,-301.876C478.697,-292.639 499.083,-281.131 516.654,-271.212"/>
<polygon fill="black" stroke="black" points="518.562,-274.154 525.55,-266.19 515.121,-268.058 518.562,-274.154"/>
</g>
<!-- _0x10000b88 -->
<g id="node27" class="node"><title>_0x10000b88</title>
<polygon fill="orchid" stroke="black" points="613.5,-194 498.5,-194 498.5,-158 613.5,-158 613.5,-194"/>
<text text-anchor="middle" x="556" y="-179" font-family="Times,serif" font-size="10.00">THJOIN 3</text>
<text text-anchor="middle" x="556" y="-168" font-family="Times,serif" font-size="10.00">e 00000b88 d 11,7,1</text>
</g>
<!-- _0x10000ab8&#45;&gt;_0x10000b88 -->
<g id="edge63" class="edge"><title>_0x10000ab8&#45;&gt;_0x10000b88</title>
<path fill="none" stroke="black" d="M556,-229.697C556,-221.983 556,-212.712 556,-204.112"/>
<polygon fill="black" stroke="black" points="559.5,-204.104 556,-194.104 552.5,-204.104 559.5,-204.104"/>
</g>
<!-- _0x10000c58 -->
<g id="node28" class="node"><title>_0x10000c58</title>
<polygon fill="grey" stroke="black" points="613,-122 499,-122 499,-86 613,-86 613,-122"/>
<text text-anchor="middle" x="556" y="-107" font-family="Times,serif" font-size="10.00">THEXIT </text>
<text text-anchor="middle" x="556" y="-96" font-family="Times,serif" font-size="10.00">e 00000c58 d 12,8,0</text>
</g>
<!-- _0x10000b88&#45;&gt;_0x10000c58 -->
<g id="edge65" class="edge"><title>_0x10000b88&#45;&gt;_0x10000c58</title>
<path fill="none" stroke="black" d="M556,-157.697C556,-149.983 556,-140.712 556,-132.112"/>
<polygon fill="black" stroke="black" points="559.5,-132.104 556,-122.104 552.5,-132.104 559.5,-132.104"/>
</g>
<!-- p0_d5&#45;&gt;p0_d6 -->
<!-- p1_d2 -->
<!-- p1_d3 -->
<!-- p1_d2&#45;&gt;p1_d3 -->
<!-- _0x10400020&#45;&gt;_0x104000f0 -->
<g id="edge67" class="edge"><title>_0x10400020&#45;&gt;_0x104000f0</title>
<path fill="none" stroke="black" d="M808.021,-805.892C822.407,-797.256 837.456,-785.317 846,-770 869.39,-728.069 865.936,-670.091 861.103,-636.366"/>
<polygon fill="black" stroke="black" points="864.534,-635.652 859.517,-626.32 857.619,-636.743 864.534,-635.652"/>
</g>
<!-- _0x10400020&#45;&gt;_0x10400438 -->
<g id="edge73" class="edge"><title>_0x10400020&#45;&gt;_0x10400438</title>
<path fill="none" stroke="black" d="M771,-805.697C771,-797.983 771,-788.712 771,-780.112"/>
<polygon fill="black" stroke="black" points="774.5,-780.104 771,-770.104 767.5,-780.104 774.5,-780.104"/>
</g>
<!-- p1_d5 -->
<!-- p1_d6 -->
<!-- p1_d5&#45;&gt;p1_d6 -->
<!-- _0x104001c0 -->
<g id="node35" class="node"><title>_0x104001c0</title>
<polygon fill="#eeee00" stroke="black" points="910,-554 802,-554 802,-518 910,-518 910,-554"/>
<text text-anchor="middle" x="856" y="-539" font-family="Times,serif" font-size="10.00">THCREAT 3</text>
<text text-anchor="middle" x="856" y="-528" font-family="Times,serif" font-size="10.00">e 004001c0 d 6,2,0</text>
</g>
<!-- _0x104000f0&#45;&gt;_0x104001c0 -->
<g id="edge69" class="edge"><title>_0x104000f0&#45;&gt;_0x104001c0</title>
<path fill="none" stroke="black" d="M856,-589.697C856,-581.983 856,-572.712 856,-564.112"/>
<polygon fill="black" stroke="black" points="859.5,-564.104 856,-554.104 852.5,-564.104 859.5,-564.104"/>
</g>
<!-- _0x10400290 -->
<g id="node37" class="node"><title>_0x10400290</title>
<polygon fill="lightblue" stroke="black" points="923,-482 789,-482 789,-446 923,-446 923,-482"/>
<text text-anchor="middle" x="856" y="-467" font-family="Times,serif" font-size="10.00">MTX&#45;UNLK 0x1a67f010</text>
<text text-anchor="middle" x="856" y="-456" font-family="Times,serif" font-size="10.00">e 00400290 d 7,3,3</text>
</g>
<!-- _0x104000f0&#45;&gt;_0x10400290 -->
<g id="edge71" class="edge"><title>_0x104000f0&#45;&gt;_0x10400290</title>
<path fill="none" stroke="blue" d="M825.7,-589.805C813.122,-580.898 799.877,-568.772 793,-554 786.247,-539.495 786.247,-532.505 793,-518 798.426,-506.344 807.818,-496.336 817.718,-488.256"/>
<polygon fill="blue" stroke="blue" points="819.852,-491.03 825.7,-482.195 815.619,-485.455 819.852,-491.03"/>
</g>
<!-- p1_d7 -->
<!-- p1_d6&#45;&gt;p1_d7 -->
<!-- _0x104001c0&#45;&gt;_0x10400290 -->
<g id="edge70" class="edge"><title>_0x104001c0&#45;&gt;_0x10400290</title>
<path fill="none" stroke="black" d="M856,-517.697C856,-509.983 856,-500.712 856,-492.112"/>
<polygon fill="black" stroke="black" points="859.5,-492.104 856,-482.104 852.5,-492.104 859.5,-492.104"/>
</g>
<!-- _0x10c00020 -->
<g id="node63" class="node"><title>_0x10c00020</title>
<polygon fill="greenyellow" stroke="black" points="1127,-482 1019,-482 1019,-446 1127,-446 1127,-482"/>
<text text-anchor="middle" x="1073" y="-467" font-family="Times,serif" font-size="10.00">THSTART </text>
<text text-anchor="middle" x="1073" y="-456" font-family="Times,serif" font-size="10.00">e 00c00020 d 7,0,1</text>
</g>
<!-- _0x104001c0&#45;&gt;_0x10c00020 -->
<g id="edge82" class="edge"><title>_0x104001c0&#45;&gt;_0x10c00020</title>
<path fill="none" stroke="blue" d="M908.807,-517.966C939.39,-508.1 978.073,-495.622 1010.21,-485.255"/>
<polygon fill="blue" stroke="blue" points="1011.51,-488.512 1019.96,-482.111 1009.36,-481.85 1011.51,-488.512"/>
</g>
<!-- p1_d8 -->
<!-- p1_d7&#45;&gt;p1_d8 -->
<!-- _0x10400360 -->
<g id="node39" class="node"><title>_0x10400360</title>
<polygon fill="grey" stroke="black" points="910.5,-410 801.5,-410 801.5,-374 910.5,-374 910.5,-410"/>
<text text-anchor="middle" x="856" y="-395" font-family="Times,serif" font-size="10.00">THEXIT </text>
<text text-anchor="middle" x="856" y="-384" font-family="Times,serif" font-size="10.00">e 00400360 d 8,4,0</text>
</g>
<!-- _0x10400290&#45;&gt;_0x10400360 -->
<g id="edge72" class="edge"><title>_0x10400290&#45;&gt;_0x10400360</title>
<path fill="none" stroke="black" d="M856,-445.697C856,-437.983 856,-428.712 856,-420.112"/>
<polygon fill="black" stroke="black" points="859.5,-420.104 856,-410.104 852.5,-420.104 859.5,-420.104"/>
</g>
<!-- _0x10400360&#45;&gt;_0x10000430 -->
<g id="edge48" class="edge"><title>_0x10400360&#45;&gt;_0x10000430</title>
<path fill="none" stroke="blue" d="M801.18,-378.079C750.949,-366.241 676.549,-348.705 623.483,-336.198"/>
<polygon fill="blue" stroke="blue" points="624.037,-332.733 613.501,-333.845 622.431,-339.546 624.037,-332.733"/>
</g>
<!-- p1_d4 -->
<!-- p1_d3&#45;&gt;p1_d4 -->
<!-- _0x10400508 -->
<g id="node43" class="node"><title>_0x10400508</title>
<polygon fill="#eeee00" stroke="black" points="825.5,-698 716.5,-698 716.5,-662 825.5,-662 825.5,-698"/>
<text text-anchor="middle" x="771" y="-683" font-family="Times,serif" font-size="10.00">THCREAT 3</text>
<text text-anchor="middle" x="771" y="-672" font-family="Times,serif" font-size="10.00">e 00400508 d 4,2,0</text>
</g>
<!-- _0x10400438&#45;&gt;_0x10400508 -->
<g id="edge74" class="edge"><title>_0x10400438&#45;&gt;_0x10400508</title>
<path fill="none" stroke="black" d="M771,-733.697C771,-725.983 771,-716.712 771,-708.112"/>
<polygon fill="black" stroke="black" points="774.5,-708.104 771,-698.104 767.5,-708.104 774.5,-708.104"/>
</g>
<!-- _0x104005d8 -->
<g id="node44" class="node"><title>_0x104005d8</title>
<polygon fill="lightblue" stroke="black" points="772,-626 638,-626 638,-590 772,-590 772,-626"/>
<text text-anchor="middle" x="705" y="-611" font-family="Times,serif" font-size="10.00">MTX&#45;UNLK 0x1a67f010</text>
<text text-anchor="middle" x="705" y="-600" font-family="Times,serif" font-size="10.00">e 004005d8 d 5,3,1</text>
</g>
<!-- _0x10400438&#45;&gt;_0x104005d8 -->
<g id="edge76" class="edge"><title>_0x10400438&#45;&gt;_0x104005d8</title>
<path fill="none" stroke="blue" d="M740.385,-733.833C727.641,-724.932 714.165,-712.803 707,-698 697.712,-678.812 697.852,-654.465 699.957,-636.088"/>
<polygon fill="blue" stroke="blue" points="703.443,-636.431 701.367,-626.041 696.511,-635.458 703.443,-636.431"/>
</g>
<!-- p1_d4&#45;&gt;p1_d5 -->
<!-- _0x10400508&#45;&gt;_0x104005d8 -->
<g id="edge75" class="edge"><title>_0x10400508&#45;&gt;_0x104005d8</title>
<path fill="none" stroke="black" d="M754.685,-661.697C746.693,-653.22 736.928,-642.864 728.178,-633.583"/>
<polygon fill="black" stroke="black" points="730.534,-630.979 721.127,-626.104 725.441,-635.781 730.534,-630.979"/>
</g>
<!-- _0x10c001c8 -->
<g id="node67" class="node"><title>_0x10c001c8</title>
<polygon fill="greenyellow" stroke="black" points="1198.5,-626 1091.5,-626 1091.5,-590 1198.5,-590 1198.5,-626"/>
<text text-anchor="middle" x="1145" y="-611" font-family="Times,serif" font-size="10.00">THSTART </text>
<text text-anchor="middle" x="1145" y="-600" font-family="Times,serif" font-size="10.00">e 00c001c8 d 5,0,1</text>
</g>
<!-- _0x10400508&#45;&gt;_0x10c001c8 -->
<g id="edge84" class="edge"><title>_0x10400508&#45;&gt;_0x10c001c8</title>
<path fill="none" stroke="blue" d="M825.783,-668.746C893.8,-656.016 1009.6,-634.343 1081.45,-620.895"/>
<polygon fill="blue" stroke="blue" points="1082.1,-624.334 1091.28,-619.054 1080.81,-617.453 1082.1,-624.334"/>
</g>
<!-- _0x104005d8&#45;&gt;_0x10000778 -->
<g id="edge55" class="edge"><title>_0x104005d8&#45;&gt;_0x10000778</title>
<path fill="none" stroke="blue" d="M643.919,-589.966C608.087,-579.972 562.641,-567.298 525.19,-556.854"/>
<polygon fill="blue" stroke="blue" points="525.927,-553.426 515.354,-554.111 524.047,-560.169 525.927,-553.426"/>
</g>
<!-- _0x104006a8 -->
<g id="node45" class="node"><title>_0x104006a8</title>
<polygon fill="grey" stroke="black" points="759.5,-554 650.5,-554 650.5,-518 759.5,-518 759.5,-554"/>
<text text-anchor="middle" x="705" y="-539" font-family="Times,serif" font-size="10.00">THEXIT </text>
<text text-anchor="middle" x="705" y="-528" font-family="Times,serif" font-size="10.00">e 004006a8 d 6,4,0</text>
</g>
<!-- _0x104005d8&#45;&gt;_0x104006a8 -->
<g id="edge77" class="edge"><title>_0x104005d8&#45;&gt;_0x104006a8</title>
<path fill="none" stroke="black" d="M705,-589.697C705,-581.983 705,-572.712 705,-564.112"/>
<polygon fill="black" stroke="black" points="708.5,-564.104 705,-554.104 701.5,-564.104 708.5,-564.104"/>
</g>
<!-- _0x104006a8&#45;&gt;_0x100009e8 -->
<g id="edge60" class="edge"><title>_0x104006a8&#45;&gt;_0x100009e8</title>
<path fill="none" stroke="blue" d="M687.143,-517.794C653.581,-485.898 578.141,-416.267 508,-366 496.876,-358.028 484.271,-350.145 472.57,-343.258"/>
<polygon fill="blue" stroke="blue" points="474.245,-340.184 463.837,-338.201 470.737,-346.241 474.245,-340.184"/>
</g>
<!-- p1_d0 -->
<!-- p1_d1 -->
<!-- p1_d0&#45;&gt;p1_d1 -->
<!-- p1_d1&#45;&gt;p1_d2 -->
<!-- p2_d4 -->
<!-- p2_d5 -->
<!-- p2_d4&#45;&gt;p2_d5 -->
<!-- _0x108000f0 -->
<g id="node51" class="node"><title>_0x108000f0</title>
<polygon fill="grey" stroke="black" points="196.5,-626 89.5,-626 89.5,-590 196.5,-590 196.5,-626"/>
<text text-anchor="middle" x="143" y="-611" font-family="Times,serif" font-size="10.00">THEXIT </text>
<text text-anchor="middle" x="143" y="-600" font-family="Times,serif" font-size="10.00">e 008000f0 d 5,1,0</text>
</g>
<!-- _0x10800020&#45;&gt;_0x108000f0 -->
<g id="edge79" class="edge"><title>_0x10800020&#45;&gt;_0x108000f0</title>
<path fill="none" stroke="black" d="M143,-661.697C143,-653.983 143,-644.712 143,-636.112"/>
<polygon fill="black" stroke="black" points="146.5,-636.104 143,-626.104 139.5,-636.104 146.5,-636.104"/>
</g>
<!-- p2_d6 -->
<!-- p2_d5&#45;&gt;p2_d6 -->
<!-- _0x108000f0&#45;&gt;_0x10000500 -->
<g id="edge50" class="edge"><title>_0x108000f0&#45;&gt;_0x10000500</title>
<path fill="none" stroke="blue" d="M124.358,-589.685C99.6106,-564.72 59,-515.985 59,-465 59,-465 59,-465 59,-391 59,-347.07 45.5255,-323.585 78,-294 121.837,-254.063 279.745,-274.7 355.282,-265.678"/>
<polygon fill="blue" stroke="blue" points="355.987,-269.112 365.374,-264.198 354.972,-262.186 355.987,-269.112"/>
</g>
<!-- p2_d8 -->
<!-- p2_d9 -->
<!-- p2_d8&#45;&gt;p2_d9 -->
<!-- _0x10800298 -->
<g id="node55" class="node"><title>_0x10800298</title>
<polygon fill="grey" stroke="black" points="268.5,-338 159.5,-338 159.5,-302 268.5,-302 268.5,-338"/>
<text text-anchor="middle" x="214" y="-323" font-family="Times,serif" font-size="10.00">THEXIT </text>
<text text-anchor="middle" x="214" y="-312" font-family="Times,serif" font-size="10.00">e 00800298 d 9,1,0</text>
</g>
<!-- _0x108001c8&#45;&gt;_0x10800298 -->
<g id="edge81" class="edge"><title>_0x108001c8&#45;&gt;_0x10800298</title>
<path fill="none" stroke="black" d="M214,-373.697C214,-365.983 214,-356.712 214,-348.112"/>
<polygon fill="black" stroke="black" points="217.5,-348.104 214,-338.104 210.5,-348.104 217.5,-348.104"/>
</g>
<!-- _0x10800298&#45;&gt;_0x10000ab8 -->
<g id="edge62" class="edge"><title>_0x10800298&#45;&gt;_0x10000ab8</title>
<path fill="none" stroke="blue" d="M255.36,-301.93C263.74,-298.938 272.57,-296.112 281,-294 368.389,-272.107 395.572,-282.916 488.259,-265.979"/>
<polygon fill="blue" stroke="blue" points="489.174,-269.368 498.351,-264.074 487.875,-262.49 489.174,-269.368"/>
</g>
<!-- p2_d0 -->
<!-- p2_d1 -->
<!-- p2_d0&#45;&gt;p2_d1 -->
<!-- p2_d2 -->
<!-- p2_d1&#45;&gt;p2_d2 -->
<!-- p2_d3 -->
<!-- p2_d2&#45;&gt;p2_d3 -->
<!-- p2_d3&#45;&gt;p2_d4 -->
<!-- p2_d7 -->
<!-- p2_d6&#45;&gt;p2_d7 -->
<!-- p2_d7&#45;&gt;p2_d8 -->
<!-- p3_d7 -->
<!-- p3_d8 -->
<!-- p3_d7&#45;&gt;p3_d8 -->
<!-- _0x10c000f0 -->
<g id="node65" class="node"><title>_0x10c000f0</title>
<polygon fill="grey" stroke="black" points="1126,-410 1020,-410 1020,-374 1126,-374 1126,-410"/>
<text text-anchor="middle" x="1073" y="-395" font-family="Times,serif" font-size="10.00">THEXIT </text>
<text text-anchor="middle" x="1073" y="-384" font-family="Times,serif" font-size="10.00">e 00c000f0 d 8,1,0</text>
</g>
<!-- _0x10c00020&#45;&gt;_0x10c000f0 -->
<g id="edge83" class="edge"><title>_0x10c00020&#45;&gt;_0x10c000f0</title>
<path fill="none" stroke="black" d="M1073,-445.697C1073,-437.983 1073,-428.712 1073,-420.112"/>
<polygon fill="black" stroke="black" points="1076.5,-420.104 1073,-410.104 1069.5,-420.104 1076.5,-420.104"/>
</g>
<!-- _0x10c000f0&#45;&gt;_0x100005d0 -->
<g id="edge52" class="edge"><title>_0x10c000f0&#45;&gt;_0x100005d0</title>
<path fill="none" stroke="blue" d="M1029.25,-373.964C949.166,-343.098 773.308,-276.793 622,-230 609.205,-226.043 543.21,-208.56 490.677,-194.741"/>
<polygon fill="blue" stroke="blue" points="491.267,-191.278 480.706,-192.12 489.487,-198.047 491.267,-191.278"/>
</g>
<!-- p3_d5 -->
<!-- p3_d6 -->
<!-- p3_d5&#45;&gt;p3_d6 -->
<!-- _0x10c00298 -->
<g id="node69" class="node"><title>_0x10c00298</title>
<polygon fill="grey" stroke="black" points="1199,-554 1091,-554 1091,-518 1199,-518 1199,-554"/>
<text text-anchor="middle" x="1145" y="-539" font-family="Times,serif" font-size="10.00">THEXIT </text>
<text text-anchor="middle" x="1145" y="-528" font-family="Times,serif" font-size="10.00">e 00c00298 d 6,1,0</text>
</g>
<!-- _0x10c001c8&#45;&gt;_0x10c00298 -->
<g id="edge85" class="edge"><title>_0x10c001c8&#45;&gt;_0x10c00298</title>
<path fill="none" stroke="black" d="M1145,-589.697C1145,-581.983 1145,-572.712 1145,-564.112"/>
<polygon fill="black" stroke="black" points="1148.5,-564.104 1145,-554.104 1141.5,-564.104 1148.5,-564.104"/>
</g>
<!-- p3_d6&#45;&gt;p3_d7 -->
<!-- _0x10c00298&#45;&gt;_0x10000b88 -->
<g id="edge64" class="edge"><title>_0x10c00298&#45;&gt;_0x10000b88</title>
<path fill="none" stroke="blue" d="M1172.94,-517.772C1185.49,-508.639 1199.39,-496.336 1208,-482 1228.82,-447.326 1227,-433.447 1227,-393 1227,-393 1227,-393 1227,-319 1227,-196.622 794.405,-179.219 623.905,-177.113"/>
<polygon fill="blue" stroke="blue" points="623.828,-173.612 613.79,-177.002 623.751,-180.611 623.828,-173.612"/>
</g>
<!-- p3_d0 -->
<!-- p3_d1 -->
<!-- p3_d0&#45;&gt;p3_d1 -->
<!-- p3_d2 -->
<!-- p3_d1&#45;&gt;p3_d2 -->
<!-- p3_d3 -->
<!-- p3_d2&#45;&gt;p3_d3 -->
<!-- p3_d4 -->
<!-- p3_d3&#45;&gt;p3_d4 -->
<!-- p3_d4&#45;&gt;p3_d5 -->
<!-- _root -->
<!-- _root&#45;&gt;p0_d0 -->
<!-- _root&#45;&gt;p1_d0 -->
<!-- _root&#45;&gt;p2_d0 -->
<!-- _root&#45;&gt;p3_d0 -->
</g>
</svg>
